<svg viewBox="0 0 120 120" xmlns="http://www.w3.org/2000/svg">
    <style>

        .waiting-left {
            transform-origin: center center;
            animation: waiting-anim-left 4s ease-in-out 0.5s infinite;
        }

        .waiting-right {
            transform-origin: center center;
            animation: waiting-anim-right 4s ease-in-out 0.5s infinite;
        }

        @keyframes waiting-anim-left {
            0% {transform: translateY(0px);}
            50% {transform: translateY(-49.8px);}
            100% {transform: translateY(0px);}
        }

        @keyframes waiting-anim-right {
            0% {transform: translateY(0px);}
            50% {transform: translateY(49.8px);}
            100% {transform: translateY(0px);}
        }

        .clip-left {
            clip-path: url(#clip-path-left);
        }

        .clip-right {
            clip-path: url(#clip-path-right);
        }

        #speed {
            /* font: 13px sans-serif; */
        }

    </style>

    <defs>
        <linearGradient id="linear" gradientTransform="rotate(90)">
            <stop offset="5%"  stop-color="gold" />
            <stop offset="95%" stop-color="red" />
        </linearGradient>
        <clipPath id="clip-path-left">
            <path d="M 0 20 a 5 5 0 0 1 20 0 l 0 80 a 5 5 0 0 1 -20 0 z"/>
        </clipPath>
        <clipPath id="clip-path-right">
            <path d="M 100 20 a 5 5 0 0 1 20 0 l 0 80 a 5 5 0 0 1 -20 0 z"/>
        </clipPath>
    </defs>
    
    <circle id="flash-cir" cx="60" cy="30" r="12" fill="#3b3b3b"/>

    <rect x="40" y="60" width="40" height="30" fill="#3b3b3b" stroke="#181818"/>

    <text id="speedometer" x="71.5" y="79.5" text-anchor="end">15.2</text>

    <g class="clip-left active-controller">
        <line x1="10" x2="10" y1="10" y2="110" stroke="#3b3b3b" stroke-width="20"/>
        <line id="speedbar-left" x1="10" x2="10.00001" y1="60" y2="110" stroke="url(#linear)" stroke-width="20"/>
    </g>

    <g class="clip-right active-controller">
        <line x1="110" x2="110" y1="10" y2="110" stroke="#3b3b3b" stroke-width="20"/>
        <line id="speedbar-right" x1="110" x2="110.00001" y1="60" y2="10" stroke="url(#linear)" stroke-width="20"/>
    </g>

    <g class="clip-left inactive-controller">
        <line x1="10" x2="10" y1="10" y2="110" stroke="#3b3b3b" stroke-width="20"/>
        <line class="waiting-left" x1="10" x2="10" y1="60" y2="109.8" stroke="#0b58fd" stroke-width="19.8"/>
    </g>

    <g class="clip-right inactive-controller">
        <line x1="110" x2="110" y1="10" y2="110" stroke="#3b3b3b" stroke-width="20"/>
        <line class="waiting-right" x1="110" x2="110" y1="60" y2="10.2" stroke="#0b58fd" stroke-width="19.8"/>
    </g>
    
</svg>